<?xml version="1.0" encoding="UTF-8" standalone="no"?>
<!-- Created with Inkscape (http://www.inkscape.org/) -->

<svg
   version="1.1"
   id="svg1"
   width="800"
   height="800"
   viewBox="0 0 799.99998 800"
   sodipodi:docname="logo.svg"
   inkscape:version="1.4 (e7c3feb100, 2024-10-09)"
   xmlns:inkscape="http://www.inkscape.org/namespaces/inkscape"
   xmlns:sodipodi="http://sodipodi.sourceforge.net/DTD/sodipodi-0.dtd"
   xmlns="http://www.w3.org/2000/svg"
   xmlns:svg="http://www.w3.org/2000/svg">
  <defs
     id="defs1" />
  <sodipodi:namedview
     id="namedview1"
     pagecolor="#ffffff"
     bordercolor="#000000"
     borderopacity="0.25"
     inkscape:showpageshadow="2"
     inkscape:pageopacity="0.0"
     inkscape:pagecheckerboard="0"
     inkscape:deskcolor="#d1d1d1"
     inkscape:zoom="1"
     inkscape:cx="489.5"
     inkscape:cy="448.5"
     inkscape:window-width="1920"
     inkscape:window-height="1011"
     inkscape:window-x="0"
     inkscape:window-y="32"
     inkscape:window-maximized="1"
     inkscape:current-layer="g1"
     showguides="true">
    <sodipodi:guide
       position="636.22065,523.12987"
       orientation="0.70710678,0.70710678"
       id="guide2"
       inkscape:locked="false"
       inkscape:label=""
       inkscape:color="rgb(0,134,229)" />
    <sodipodi:guide
       position="534.69647,522.1234"
       orientation="0.70710678,0.70710678"
       id="guide3"
       inkscape:label=""
       inkscape:locked="false"
       inkscape:color="rgb(0,134,229)" />
    <sodipodi:guide
       position="434.09037,536.68884"
       orientation="0.70710678,0.70710678"
       id="guide4"
       inkscape:label=""
       inkscape:locked="false"
       inkscape:color="rgb(0,134,229)" />
    <sodipodi:guide
       position="175.05079,245.01749"
       orientation="0.70710678,0.70710678"
       id="guide5"
       inkscape:label=""
       inkscape:locked="false"
       inkscape:color="rgb(0,134,229)" />
    <sodipodi:guide
       position="334.17664,514.06786"
       orientation="0.70710678,0.70710678"
       id="guide1"
       inkscape:label=""
       inkscape:locked="false"
       inkscape:color="rgb(0,134,229)" />
    <sodipodi:guide
       position="226.44187,523.50403"
       orientation="0.70710678,0.70710678"
       id="guide6"
       inkscape:label=""
       inkscape:locked="false"
       inkscape:color="rgb(0,134,229)" />
    <sodipodi:guide
       position="226.44187,523.50403"
       orientation="0.70710678,0.70710678"
       id="guide7"
       inkscape:label=""
       inkscape:locked="false"
       inkscape:color="rgb(0,134,229)" />
  </sodipodi:namedview>
  <g
     inkscape:groupmode="layer"
     inkscape:label="Image"
     id="g1"
     transform="translate(66.650327,-9.9018567)">
    <circle
       style="fill:#095eae;fill-opacity:1;stroke:none;stroke-width:1.13067"
       id="path2"
       cx="333.34967"
       cy="409.90186"
       r="349.43466" />
    <path
       id="path7"
       style="fill:#032342;fill-opacity:1"
       d="M 367.43952 273.2124 L 351.33014 379.63818 L 267.52545 295.8335 L 240.30866 366.91553 L 159.79108 286.39795 L 137.70319 353.55615 L 125.09967 561.15186 L 108.40045 564.88428 L 300.50397 756.98779 A 349.43466 349.43466 0 0 0 333.34967 759.3374 A 349.43466 349.43466 0 0 0 682.78522 409.90186 A 349.43466 349.43466 0 0 0 682.53522 399.73779 L 569.57038 286.77295 L 547.54108 367.2749 L 468.78913 288.521 L 444.77155 350.54443 L 367.43952 273.2124 z " />
    <path
       style="fill:#ffffff;stroke-width:8.94426"
       d="m 271.57415,576.91064 c -0.5869,-0.58674 -53.8943,-1.26936 -118.4615,-1.51749 -76.350905,-0.29337 -117.409725,-1.27848 -117.437645,-2.81763 -0.0261,-1.30155 4.23603,-2.694 9.4653,-3.09424 5.86584,-0.44903 9.50789,-1.90961 9.50789,-3.81323 0,-1.99966 -2.04371,-2.69479 -5.80716,-1.97533 -4.77821,0.9133 -6.098,-0.0447 -7.44809,-5.42745 -1.96135,-7.81443 1.42155,-14.08778 7.59695,-14.08778 3.31902,0 4.6665,1.9868 5.21647,7.69109 0.40799,4.23019 1.73891,7.69119 2.95814,7.69119 1.21921,0 2.21646,2.1298 2.21646,4.73292 0,4.41847 1.57774,4.73305 23.73932,4.73305 20.444465,0 23.953285,-0.57513 25.280185,-4.14138 0.8472,-2.27775 3.69007,-7.08805 6.31666,-10.68946 4.43671,-6.083 4.5742,-7.72533 1.93485,-23.11734 -1.56284,-9.11307 -2.84122,-19.74423 -2.84122,-23.62479 v -7.05559 H 73.579975 c -25.24254,0 -40.2303,-0.88164 -40.2303,-2.36649 0,-1.48424 14.89571,-2.36651 39.95438,-2.36651 39.433965,0 39.973065,-0.0697 41.381585,-5.32464 1.88469,-7.03317 1.87026,-32.95551 -0.0259,-51.12427 l -1.52023,-14.54616 H 73.106275 c -26.08596,0 -39.52342,-0.82449 -38.57043,-2.36651 0.88199,-1.42654 17.34173,-2.3665 41.44218,-2.3665 h 39.979695 l 2.46448,-8.87438 c 3.36659,-12.12244 3.29795,-12.50611 -3.50976,-19.61175 -5.7499,-6.00173 -5.91602,-6.97087 -3.97738,-23.20289 l 2.02313,-16.93955 H 74.478375 c -23.1006,0 -39.06456,-0.94582 -39.94253,-2.3665 -0.95323,-1.54208 12.50105,-2.36651 38.62061,-2.36651 h 40.082865 l 2.99339,-7.22661 c 2.03945,-4.92318 5.10951,-7.64982 9.63213,-8.55437 10.99001,-2.19801 14.76481,-8.28828 12.49561,-20.16033 -2.4678,-12.91008 -1.7614,-18.32698 3.0892,-23.68684 4.7581,-5.25743 13.3753,-5.51516 18.3419,-0.54855 4.0928,4.0929 5.056,20.02879 1.4296,23.65512 -4.5385,4.53862 0.509,12.22503 12.5228,19.07032 8.0508,4.58733 12.5072,8.7731 13.0041,12.21503 0.697,4.82466 2.039,5.23629 17.0741,5.23629 13.5475,0 16.7217,-0.75517 18.6982,-4.44844 1.3094,-2.44662 6.5332,-6.10979 11.6082,-8.14042 10.2363,-4.09581 13.393,-9.17541 9.8342,-15.82501 -6.731,-12.57717 0.2487,-26.01569 13.5125,-26.01569 11.9253,0 14.9724,7.33607 11.3971,27.43875 -1.7091,9.60897 -1.6324,9.74331 9.1695,16.07364 5.9913,3.51103 10.893,7.40371 10.893,8.65042 0,1.24671 5.8834,2.26675 13.0742,2.26675 12.135,0 13.2375,-0.46762 15.3449,-6.50788 4.5245,-12.96956 8.5064,-18.41518 16.3433,-22.35097 12.3626,-6.20878 12.7812,-7.18168 9.4651,-22 -2.3443,-10.47507 -2.3902,-14.49827 -0.2059,-17.99685 2.756,-4.41294 -0.381,-4.50587 -152.0724,-4.50587 -100.704885,0 -155.397815,-0.8278 -156.348925,-2.3665 -0.97215,-1.57292 99.415105,-2.36651 299.362525,-2.36651 199.9477,0 300.3346,0.79353 299.3625,2.36651 -0.9465,1.53195 -48.0747,2.3665 -133.6413,2.3665 h -132.1788 l 2.6048,6.90138 c 1.8548,4.91412 1.8903,10.02413 0.123,17.74623 -2.8429,12.4233 -1.7794,14.51118 11.3821,22.34621 8.4506,5.03059 11.4135,10.46262 11.4776,21.04311 0.026,4.84236 1.1588,5.32464 12.4705,5.32464 11.5029,0 12.6707,-0.52594 15.5344,-6.9955 1.9361,-4.37344 6.581,-8.53285 12.3929,-11.09702 10.6249,-4.68764 12.8868,-9.23597 9.2938,-18.68681 -2.9499,-7.75855 -1.1386,-18.46138 3.8211,-22.57752 4.4559,-3.69796 16.761,-3.37716 21.5059,0.56072 3.4719,2.88127 3.5131,9.72792 0.1869,30.82488 -0.4124,2.61522 3.0183,5.91285 10.0219,9.63285 5.8571,3.11098 12.0387,8.50983 13.7366,11.99738 2.7736,5.6965 4.3679,6.34107 15.6869,6.34107 11.8443,0 12.7805,-0.43739 15.6222,-7.2978 2.0522,-4.95446 6.5138,-8.96729 13.8944,-12.497 l 10.8718,-5.19923 -0.8103,-16.88634 c -0.763,-15.89128 -0.4563,-17.11836 5.1985,-20.82358 5.1793,-3.39354 6.9064,-3.50258 12.5064,-0.78953 7.5809,3.67254 11.852,15.97904 8.0265,23.12703 -4.9628,9.27293 -2.849,14.2757 9.1946,21.76238 6.971,4.33342 12.2057,9.51088 13.0607,12.918 1.3588,5.41397 2.3379,5.68608 20.4537,5.68608 12.0819,0 18.4927,0.86385 17.5642,2.36654 -0.8041,1.30155 -9.2239,2.36647 -18.7098,2.36647 h -17.2471 l -1.4559,26.62316 c -0.8003,14.64272 -2.1615,30.08416 -3.0243,34.31428 l -1.5683,7.69116 h 20.2715 c 11.149,0 20.9295,1.06489 21.7339,2.36647 0.9354,1.51385 -6.5869,2.36651 -20.878,2.36651 h -22.3406 l -2.6473,10.51393 c -1.4561,5.78267 -2.6474,21.75659 -2.6474,35.49755 v 24.98359 h 23.5251 c 13.131,0 24.1718,1.04564 24.9882,2.36652 0.9398,1.5206 -7.4694,2.36648 -23.5254,2.36648 -28.8718,0 -26.6464,-3.17217 -21.4992,30.64682 2.3426,15.39198 2.6469,23.27573 0.9764,25.28853 -1.6641,2.00531 -1.6208,4.43118 0.138,7.71731 2.2261,4.15935 5.2965,4.88286 23.2377,5.47585 12.2694,0.40517 20.4321,1.64522 20.0809,3.0498 -0.3865,1.54586 -61.5241,2.52893 -176.2969,2.83488 -96.638,0.2576 -177.5106,0.94041 -179.7171,1.51751 -2.2066,0.5769 -4.4916,0.56886 -5.0783,-0.0189 z m -110.4333,-15.97143 c 0,-4.4476 -2.2167,-13.23328 -4.9257,-19.52367 -4.0337,-9.36573 -4.6423,-14.11578 -3.3614,-26.22772 l 1.5643,-14.79064 h -8.1673 -8.167 l -1.4952,18.34039 c -0.8228,10.08723 -2.14828,25.52866 -2.94627,34.31427 l -1.4509,15.9739 h 14.47467 14.4748 z m 49.6965,5.31479 c 0,-1.52454 1.7851,-4.74447 3.967,-7.1555 3.0014,-3.31644 3.3012,-5.04948 1.2317,-7.119 -1.9182,-1.91836 -2.2888,-10.02981 -1.241,-27.15883 l 1.4945,-24.42349 h -21.4938 -21.4935 l 1.3073,26.62315 c 0.7807,15.90826 2.7283,29.71858 4.838,34.31433 3.4,7.40611 4.0472,7.69108 17.4603,7.69108 9.0663,0 13.9295,-0.96768 13.9295,-2.77174 z m 55.3596,-0.97152 c 2.53,-6.5931 1.56,-12.76839 -3.5916,-22.86626 -4.2581,-8.34681 -4.7991,-12.31716 -3.533,-25.93723 l 1.4945,-16.08181 h -7.9839 -7.9837 l -2.9207,20.70689 c -1.6061,11.3888 -3.4735,26.8302 -4.1496,34.31432 l -1.229,13.60735 h 14.2303 c 10.7929,0 14.5772,-0.90418 15.6667,-3.74326 z m 44.4552,0.78531 c 0.2319,-1.62698 0.5689,-10.9451 0.7478,-20.70687 0.1799,-9.76184 1.2034,-23.8721 2.2757,-31.35617 l 1.9495,-13.60738 h -15.7129 -15.7133 l 0.045,10.05763 c 0.026,5.5317 1.0408,16.93095 2.255,25.33166 1.4637,10.12782 1.3944,16.25382 -0.2059,18.18205 -1.687,2.03249 -1.2152,4.73679 1.5666,8.98263 3.1428,4.79636 5.9149,6.07457 13.1741,6.07457 5.5526,0 9.361,-1.17161 9.6159,-2.95812 z m 57.5553,-1.76786 c 0.8247,-2.59927 -0.123,-12.98232 -2.1065,-23.07342 -1.9836,-10.09104 -4.3051,-23.40577 -5.1589,-29.58825 -1.4869,-10.76591 -1.875,-11.24089 -9.1856,-11.24089 h -7.6329 l -2.9454,21.89014 c -1.6199,12.03959 -3.5206,27.48096 -4.224,34.31429 l -1.2784,12.42411 h 15.5158 c 13.4299,0 15.7176,-0.63504 17.0159,-4.72598 z m 41.4161,0.46602 c 0,-2.34286 1.2327,-5.49249 2.7395,-6.99916 2.0749,-2.07507 2.0453,-3.57591 -0.123,-6.18773 -2.0743,-2.49912 -2.4094,-10.01731 -1.2181,-27.31509 l 1.6438,-23.86688 h -13.3539 c -15.486,0 -14.7732,-2.07705 -10.8971,31.75829 1.5321,13.37459 1.5922,21.93513 0.1633,23.36372 -1.4284,1.42849 -1.3153,4.31605 0.3086,7.88062 2.0511,4.50164 4.3792,5.62593 11.6496,5.62593 7.1719,0 9.0862,-0.89737 9.0862,-4.2597 z m 58.7811,-3.98029 c 0.4409,-3.88119 -0.4849,-11.3357 -2.0582,-16.56549 -1.573,-5.22984 -3.5313,-16.96328 -4.3515,-26.07432 l -1.4916,-16.56549 -8.6877,-0.72334 -8.6876,-0.72332 -1.4829,13.7391 c -0.8157,7.55653 -2.4969,18.20418 -3.7364,23.66145 -1.2396,5.45727 -2.2539,14.82403 -2.2539,20.81506 V 569.242 l 15.9741,-0.69942 c 15.7863,-0.6914 15.9832,-0.78263 16.7757,-7.75647 z m 49.1501,4.09861 c 2.2229,-2.928 3.1659,-12.98161 3.2192,-34.31428 l 0.071,-30.1729 h -16.5656 -16.5655 v 11.39788 c 0,6.26884 1.1328,17.52586 2.5175,25.01563 1.7995,9.73527 1.785,14.50005 -0.054,16.71231 -1.7661,2.12802 -1.8315,5.03222 -0.2106,9.29865 2.0799,5.47067 3.6638,6.20409 13.3974,6.20409 7.7376,0 11.9788,-1.23844 14.1822,-4.14138 z m 49.743,0 c -0.6601,-2.27773 -3.041,-17.71921 -5.2906,-34.31428 -3.8207,-28.18404 -4.4308,-30.1729 -9.254,-30.1729 -4.8707,0 -5.3251,1.64353 -8.016,28.98965 -1.5688,15.94431 -3.178,31.38576 -3.576,34.3143 -0.6797,5.0045 0.1207,5.32461 13.3066,5.32461 12.2419,0 13.8774,-0.5277 12.83,-4.14138 z M 49.188435,550.73035 c -0.60014,-2.30252 -1.13024,-0.99167 -1.17851,2.91304 -0.045,3.9047 0.44277,5.78865 1.09095,4.18646 0.64842,-1.60227 0.68771,-4.797 0.0898,-7.0995 z M 153.18775,491.52271 c -0.6449,-2.27776 -1.8632,-10.6003 -2.7076,-18.49453 -1.9026,-17.7903 -4.9644,-23.85068 -7.0332,-13.92144 -0.7997,3.83683 -2.4699,10.82686 -3.7123,15.53338 -1.2425,4.70652 -2.2591,11.36232 -2.2591,14.79065 0,5.56857 0.9005,6.23331 8.4425,6.23331 6.909,0 8.2293,-0.75203 7.2697,-4.14137 z m 65.8957,-23.66503 c 0.8872,-15.29352 1.7912,-31.00118 2.0084,-34.90592 l 0.3943,-7.0995 -20.7303,-0.68413 -20.7301,-0.68415 -2.6266,6.60036 c -1.4447,3.63019 -3.1754,19.64568 -3.846,35.58999 l -1.2193,28.98966 h 22.568 22.5679 z m 37.9326,11.83251 c -1.6137,-15.13991 -5.8542,-28.17855 -7.5022,-23.06708 -0.4187,1.2981 -1.6346,10.61336 -2.7026,20.70059 l -1.9415,18.34038 h 6.9244 6.9247 z m 58.8663,3.54976 c 0.6932,-6.83328 1.7491,-22.80717 2.3474,-35.49754 l 1.0874,-23.07339 h -15.2512 c -14.4458,0 -15.3851,0.34372 -17.785,6.50787 -3.784,9.71956 -5.2709,31.19356 -3.3815,48.837 l 1.676,15.65019 h 15.0237 15.0238 z m 43.7891,5.91626 c -0.5188,-13.20774 -5.7341,-37.26476 -8.0272,-37.02543 -2.9342,0.30625 -5.5991,14.65012 -5.7799,31.10917 -0.1349,12.25725 -0.045,12.42413 6.9631,12.42413 6.2292,0 7.0681,-0.79781 6.844,-6.50787 z m 55.7238,-21.29853 c 0.8836,-15.29352 2.1944,-31.26741 2.9134,-35.49753 l 1.3075,-7.69113 h -15.5058 c -8.5284,0 -16.1095,0.97662 -16.8474,2.17024 -3.0504,4.93577 -4.1577,24.8775 -2.5624,46.15328 l 1.6996,22.67154 h 13.6944 13.6945 z m 42.832,13.01577 c -1.8123,-17.20959 -5.7764,-28.9833 -8.7556,-26.00415 -1.1361,1.13608 -2.7376,10.77966 -3.559,21.4302 l -1.4932,19.36458 h 7.6826 7.6828 z m 63.471,0 c 1.3385,-14.13231 2.3355,-43.29654 1.7799,-52.06307 -0.2225,-3.52191 -2.7236,-4.14136 -16.7168,-4.14136 h -16.4543 l -2.4647,8.87437 c -2.7207,9.79709 -3.261,39.39714 -0.9719,53.24631 l 1.467,8.87438 h 15.98 15.9803 z m 36.0042,2.3665 c -0.891,-6.83328 -2.313,-15.08646 -3.1595,-18.34039 -1.537,-5.90978 -1.5406,-5.90847 -3.1373,1.18324 -0.8794,3.90473 -1.7244,12.15791 -1.8785,18.3404 -0.2487,9.97767 0.2861,11.24088 4.7579,11.24088 4.7055,0 4.931,-0.81956 3.4174,-12.42413 z m -342.9471,-89.55657 c 0.2011,-14.43041 1.0495,-29.86834 1.8821,-34.30652 l 1.5138,-8.06942 h -15.0351 -15.0351 l 1.0162,21.25299 c 0.7405,15.49294 -0.026,24.43236 -2.8211,32.98405 -2.1102,6.4521 -3.8368,12.32969 -3.8368,13.06131 0,0.73166 7.1882,1.32674 15.9739,1.32248 l 15.9736,-0.007 z m 98.831,12.8219 c -2.282,-9.81728 -2.5364,-17.93514 -0.9456,-30.1729 3.5682,-27.44735 4.0178,-26.2082 -9.5098,-26.2082 h -11.8325 v 31.16264 c 0,17.13941 -0.6468,32.84707 -1.4365,34.90589 -1.2112,3.15605 0.7826,3.7433 12.7051,3.7433 h 14.1415 z m 101.2378,-3.72642 c -0.4446,-9.43643 0.1421,-24.87784 1.3011,-34.31428 l 2.1086,-17.15714 h -11.9963 -11.9963 v 19.52364 c 0,10.73801 -0.7826,26.17944 -1.7386,34.31428 l -1.7387,14.79065 h 12.4338 12.4339 z m 104.2177,9.46602 c -2.135,-9.72113 -2.0901,-17.08961 0.2521,-41.4138 l 1.8801,-19.52364 h -12.8778 -12.878 l 0.2059,25.4399 c 0.1135,13.99195 -0.6027,29.43337 -1.591,34.31428 l -1.7971,8.87439 h 14.247 14.2471 z M 62.747325,561.11768 c -0.74427,-1.9386 -1.00695,-6.54319 -0.58406,-10.23252 0.55802,-4.87408 2.06193,-6.70774 5.50116,-6.70774 3.94142,0 4.73277,1.57768 4.73277,9.43359 0,7.1091 -1.02208,9.63048 -4.14847,10.23252 -2.28155,0.43915 -4.75715,-0.7871 -5.50094,-2.72585 z m 5.37337,-10.38733 c -0.60039,-2.30252 -1.13047,-0.99167 -1.17876,2.91304 -0.045,3.9047 0.44277,5.78865 1.09097,4.18646 0.64842,-1.60227 0.6877,-4.797 0.09,-7.0995 z m -13.4725,-60.76096 c 0,-2.21711 -1.66104,-2.89386 -4.97534,-2.02716 -8.52603,2.22963 -13.00558,-12.22509 -5.67415,-18.30965 4.73158,-3.92674 10.64949,0.78414 10.64949,8.47724 0,4.6777 1.09474,5.45464 7.09477,5.03487 7.11039,-0.49748 10.2278,-4.04612 3.55425,-4.04612 -4.72234,0 -4.58935,-9.21555 0.15857,-11.03775 2.03992,-0.78282 4.91521,-0.21678 6.38955,1.25751 1.99662,1.99664 1.50321,2.69909 -1.93391,2.7527 -4.26894,0.0663 -4.30443,0.2526 -0.47307,2.48409 2.27777,1.32669 4.14138,5.02153 4.14138,8.21079 0,4.86529 -1.14277,5.79867 -7.0995,5.79867 -3.90472,0 -7.09951,1.06492 -7.09951,2.36652 0,1.30156 -1.06493,2.36649 -2.36649,2.36649 -1.30158,0 -2.36651,-1.49769 -2.36651,-3.3282 z m -5.45976,-14.96714 c -0.60014,-2.30254 -1.13024,-0.99166 -1.17851,2.91306 -0.045,3.90474 0.44277,5.78864 1.09095,4.18644 0.64842,-1.60221 0.68771,-4.797 0.0898,-7.0995 z m 6.11031,-62.16576 c -0.19641,-2.60314 0.64227,-4.73299 1.86291,-4.73299 1.22065,0 2.21931,2.12985 2.21931,4.73299 0,2.60316 -0.83798,4.73301 -1.86267,4.73301 -1.0247,0 -2.02337,-2.12985 -2.21955,-4.73301 z m 9.40708,0.63747 c -1.66837,-0.58189 -2.95812,-4.96297 -2.95812,-10.04746 0,-5.05466 1.29945,-9.49355 2.95812,-10.10345 5.94087,-2.18481 8.87415,1.11782 8.87415,9.99147 0,8.86293 -2.94037,12.22928 -8.87415,10.15944 z m 3.41487,-14.19979 c -0.60039,-2.30253 -1.13047,-0.99164 -1.17876,2.91309 -0.045,3.90472 0.44277,5.7886 1.09097,4.18641 0.64842,-1.60218 0.6877,-4.79697 0.09,-7.0995 z m -23.56113,5.97388 c -1.16527,-7.63375 1.80753,-14.71968 5.27612,-12.57598 2.76999,1.71201 1.55407,18.48544 -1.41186,19.4763 -1.49256,0.49864 -3.20022,-2.5505 -3.86426,-6.90032 z m 10.73918,-68.1396 c -0.20352,-2.70382 1.10232,-4.73299 3.04617,-4.73299 2.20321,0 3.40279,-2.50289 3.40279,-7.09952 0,-5.86227 0.96341,-7.0995 5.52815,-7.0995 4.78602,0 5.57689,1.23854 5.88975,9.22301 0.39166,10.00458 -4.54109,14.43441 -10.53473,9.46008 -2.52837,-2.09831 -3.24991,-1.84467 -3.24991,1.14243 0,5.53898 -3.6579,4.73834 -4.08222,-0.89346 z m 13.54846,-6.05592 c 0,-2.02918 -1.08243,-3.0205 -2.40507,-2.20297 -1.32288,0.8175 -1.79263,2.47777 -1.04362,3.68941 2.02855,3.28244 3.44869,2.67039 3.44869,-1.48644 z m -24.30255,-1.63521 c -1.20267,-7.87299 1.88255,-14.57983 5.63867,-12.2584 1.1539,0.71331 2.09814,5.4937 2.09814,10.62319 0,11.69204 -6.0069,12.96161 -7.73681,1.63521 z m 10.10354,-65.34227 c 0,-1.12109 -2.5376,-1.55325 -5.63891,-0.96039 -7.98694,1.52679 -9.34176,-2.46884 -3.399,-10.02407 l 5.09697,-6.47959 -5.4091,1.71678 c -4.00176,1.27017 -5.13414,0.8826 -4.35201,-1.4897 0.58122,-1.76356 3.3744,-3.54738 6.20686,-3.96408 7.09005,-1.04301 9.14276,5.6381 3.64086,11.84936 -4.40026,4.96741 -4.38724,4.98916 2.07945,3.41652 5.47325,-1.33106 6.50765,-0.82304 6.50765,3.19542 0,2.62795 -1.06469,4.77808 -2.36627,4.77808 -1.30158,0 -2.3665,-0.91725 -2.3665,-2.03833 z m 8.7589,-1.82403 c -0.91276,-0.91271 -1.65939,-5.74169 -1.65939,-10.73108 0,-8.15307 0.61269,-9.07158 6.05232,-9.07158 5.655,0 6.00453,0.65867 5.32464,10.03722 -0.69504,9.58391 -5.28582,14.19734 -9.71757,9.76544 z m 4.7136,-12.06648 c -0.60039,-2.30255 -1.13047,-0.99164 -1.17876,2.91309 -0.045,3.90472 0.44277,5.7886 1.09097,4.18641 0.64842,-1.6022 0.6877,-4.79697 0.09,-7.0995 z"
       id="path1-7"
       sodipodi:nodetypes="cscssscssssscssscssssccssscssscssscsssssssssssssssssssscssssscssscssssssssssssccssssssssccscssscsscsssssscsssccsssccccscccsssssccccsssssscccsscssccsccccssssccscsscsscsscssscsssssccscsccccsscssscccccsscssccsssscssccsccssssssscccccssccccssscccscscssscccccscsccscsssccccssscccsscscsscccscssssccscccscssccssscscscscscccscccccsscccsccccsccsssccccscccssssssscsssssccccsccsssssssssscccccsssssssscssssssssssssssscsssssssssssssccccc" />
  </g>
</svg>
